Coordinates
version=1
nRows=9
nColumns=24
inDegrees=yes

Units are S.I. units (second, meters, Newtons, ...)
Angles are in degrees.

endheader
time	pelvis_tilt	pelvis_list	pelvis_rotation	pelvis_tx	pelvis_ty	pelvis_tz	hip_flexion_r	hip_adduction_r	hip_rotation_r	knee_angle_r	ankle_angle_r	subtalar_angle_r	mtp_angle_r	hip_flexion_l	hip_adduction_l	hip_rotation_l	knee_angle_l	ankle_angle_l	subtalar_angle_l	mtp_angle_l	lumbar_extension	lumbar_bending	lumbar_rotation
      0.84166667	     -0.05529506	     -2.59483801	     -0.19225012	     -0.45118586	      1.07027428	      0.35372546	      7.72989753	      8.54915932	     -1.77430361	    -11.38315525	      1.22074113	    -10.01491424	     -0.47472456	     13.73812382	     -3.98642149	     -0.58279244	    -63.97088277	      2.50499518	     -4.59917374	      4.54966329	      5.05060497	      5.41608880	     -2.53193419
      0.84583333	     -0.04909468	     -2.48073482	     -0.29050809	     -0.44622160	      1.07089821	      0.35402528	      7.35992040	      8.44319490	     -1.66768355	    -11.27747102	      1.46020496	     -9.72736609	     -0.48854414	     14.26287708	     -3.85265114	     -0.47276558	    -63.75319773	      2.92806698	     -5.44426065	      4.27263434	      4.94462745	      5.33829854	     -2.29373530
      0.85000000	     -0.02806810	     -2.37199209	     -0.33432087	     -0.44120103	      1.07151791	      0.35437636	      6.95514799	      8.35211147	     -1.57508173	    -11.12184642	      1.58622094	     -9.69666565	     -0.49240612	     14.76170600	     -3.72674311	     -0.30071625	    -63.47870395	      3.47742840	     -5.85145957	      4.20301146	      4.91893527	      5.06175141	     -2.19744544
      0.85416667	     -0.01767490	     -2.25182966	     -0.42939143	     -0.43624337	      1.07209877	      0.35469821	      6.57482987	      8.24334116	     -1.46180172	    -10.99612127	      1.74072268	     -9.64105110	     -0.49591586	     15.25040136	     -3.58637110	     -0.17843315	    -63.14395393	      4.06067602	     -6.32179464	      4.12702428	      4.85447306	      4.90040991	     -2.10846045
      0.85833333	      0.00381884	     -2.13319199	     -0.53352034	     -0.43130470	      1.07268265	      0.35501922	      6.18258450	      8.13515120	     -1.35521050	    -10.86941271	      1.90035123	     -9.56184012	     -0.49965614	     15.70939363	     -3.44956511	     -0.06565458	    -62.74119352	      4.56644094	     -6.74282324	      4.04325296	      4.78826620	      4.74245505	     -2.00362445
      0.86250000	      0.01045909	     -2.02328198	     -0.64452562	     -0.42637804	      1.07320431	      0.35530777	      5.80779999	      8.03331914	     -1.24574470	    -10.74257761	      2.06663332	     -9.46999870	     -0.50391534	     16.17175549	     -3.32003922	      0.04197632	    -62.28503908	      5.03613841	     -7.11191749	      3.95262263	      4.72357311	      4.59414230	     -1.88474263
      0.86666667	      0.02405822	     -1.91469411	     -0.74880641	     -0.42145234	      1.07370966	      0.35558801	      5.42010188	      7.93268927	     -1.13375903	    -10.60120765	      2.22271683	     -9.38314389	     -0.50821918	     16.61171677	     -3.19169504	      0.15253418	    -61.76838140	      5.44809312	     -7.39911819	      3.86782783	      4.66324630	      4.44910352	     -1.76614208
      0.87083333	      0.02803221	     -1.81726430	     -0.86356007	     -0.41654568	      1.07417157	      0.35584295	      5.04324867	      7.84180874	     -1.01845747	    -10.46103333	      2.37886350	     -9.30122496	     -0.51332793	     17.04506409	     -3.07455295	      0.25999749	    -61.19688723	      5.84603847	     -7.64083569	      3.77877092	      4.60147617	      4.32755106	     -1.64136726
      0.87500000	      0.03884935	     -1.72267488	     -0.98348162	     -0.41164410	      1.07461203	      0.35608896	      4.65748524	      7.75216541	     -0.89864845	    -10.31527660	      2.54005047	     -9.21798937	     -0.51977771	     17.45451116	     -2.96005464	      0.35988847	    -60.56927731	      6.22793221	     -7.83610605	      3.67947692	      4.53709757	      4.20614469	     -1.50197062
